<mxfile host="app.diagrams.net" modified="2020-10-01T07:16:49.830Z" agent="5.0 (Windows NT 10.0; Win64; x64) AppleWebKit/537.36 (KHTML, like Gecko) Chrome/85.0.4183.121 Safari/537.36" etag="YalgeJf_DsIePV0sIJZp" version="13.7.3" type="github">
  <diagram id="k-_hA_vMaZ0_n13lo4ve" name="Page-1">
    <mxGraphModel dx="2249" dy="796" grid="1" gridSize="10" guides="1" tooltips="1" connect="1" arrows="1" fold="1" page="1" pageScale="1" pageWidth="827" pageHeight="1169" math="0" shadow="0">
      <root>
        <mxCell id="0" />
        <mxCell id="1" parent="0" />
        <mxCell id="t2oM3CRjPCpd91PFb_5H-9" value="" style="edgeStyle=orthogonalEdgeStyle;rounded=0;orthogonalLoop=1;jettySize=auto;html=1;fontStyle=1" edge="1" parent="1" source="t2oM3CRjPCpd91PFb_5H-1" target="t2oM3CRjPCpd91PFb_5H-8">
          <mxGeometry relative="1" as="geometry" />
        </mxCell>
        <mxCell id="t2oM3CRjPCpd91PFb_5H-44" value="格式化数据" style="edgeLabel;html=1;align=center;verticalAlign=middle;resizable=0;points=[];fontSize=15;" vertex="1" connectable="0" parent="t2oM3CRjPCpd91PFb_5H-9">
          <mxGeometry x="-0.2133" y="2" relative="1" as="geometry">
            <mxPoint as="offset" />
          </mxGeometry>
        </mxCell>
        <mxCell id="t2oM3CRjPCpd91PFb_5H-1" value="kafka" style="rounded=1;whiteSpace=wrap;html=1;sketch=1;fillColor=#d5e8d4;strokeColor=#82b366;fontSize=20;fontStyle=1" vertex="1" parent="1">
          <mxGeometry x="120" y="215" width="60" height="130" as="geometry" />
        </mxCell>
        <mxCell id="t2oM3CRjPCpd91PFb_5H-3" value="" style="edgeStyle=orthogonalEdgeStyle;rounded=0;orthogonalLoop=1;jettySize=auto;html=1;fontStyle=1;fontSize=15;exitX=1;exitY=0.5;exitDx=0;exitDy=0;" edge="1" parent="1" source="t2oM3CRjPCpd91PFb_5H-53" target="t2oM3CRjPCpd91PFb_5H-1">
          <mxGeometry relative="1" as="geometry">
            <mxPoint x="-20" y="280" as="sourcePoint" />
          </mxGeometry>
        </mxCell>
        <mxCell id="t2oM3CRjPCpd91PFb_5H-33" value="" style="edgeStyle=orthogonalEdgeStyle;rounded=0;orthogonalLoop=1;jettySize=auto;html=1;fontSize=19;" edge="1" parent="1" source="t2oM3CRjPCpd91PFb_5H-38" target="t2oM3CRjPCpd91PFb_5H-32">
          <mxGeometry relative="1" as="geometry" />
        </mxCell>
        <mxCell id="t2oM3CRjPCpd91PFb_5H-6" value="关联引擎" style="shape=step;perimeter=stepPerimeter;whiteSpace=wrap;html=1;fixedSize=1;rounded=1;strokeColor=#82b366;fillColor=#d5e8d4;sketch=1;fontSize=20;fontStyle=1" vertex="1" parent="1">
          <mxGeometry x="610" y="240" width="120" height="80" as="geometry" />
        </mxCell>
        <mxCell id="t2oM3CRjPCpd91PFb_5H-15" value="" style="edgeStyle=orthogonalEdgeStyle;rounded=0;orthogonalLoop=1;jettySize=auto;html=1;fontSize=20;fontStyle=1" edge="1" parent="1" source="t2oM3CRjPCpd91PFb_5H-8" target="t2oM3CRjPCpd91PFb_5H-14">
          <mxGeometry relative="1" as="geometry" />
        </mxCell>
        <mxCell id="t2oM3CRjPCpd91PFb_5H-18" value="符合特征数据" style="edgeStyle=orthogonalEdgeStyle;rounded=0;orthogonalLoop=1;jettySize=auto;html=1;fontSize=19;entryX=0.5;entryY=0;entryDx=0;entryDy=0;" edge="1" parent="1" source="t2oM3CRjPCpd91PFb_5H-8" target="t2oM3CRjPCpd91PFb_5H-34">
          <mxGeometry relative="1" as="geometry">
            <mxPoint x="370" y="470" as="targetPoint" />
          </mxGeometry>
        </mxCell>
        <mxCell id="t2oM3CRjPCpd91PFb_5H-8" value="特征引擎" style="shape=step;perimeter=stepPerimeter;whiteSpace=wrap;html=1;fixedSize=1;rounded=1;strokeColor=#82b366;fillColor=#d5e8d4;sketch=1;fontSize=20;fontStyle=1" vertex="1" parent="1">
          <mxGeometry x="310" y="240" width="120" height="80" as="geometry" />
        </mxCell>
        <mxCell id="t2oM3CRjPCpd91PFb_5H-10" style="edgeStyle=orthogonalEdgeStyle;rounded=0;orthogonalLoop=1;jettySize=auto;html=1;exitX=0.5;exitY=1;exitDx=0;exitDy=0;fontStyle=1" edge="1" parent="1" source="t2oM3CRjPCpd91PFb_5H-6" target="t2oM3CRjPCpd91PFb_5H-6">
          <mxGeometry relative="1" as="geometry" />
        </mxCell>
        <mxCell id="t2oM3CRjPCpd91PFb_5H-16" value="" style="edgeStyle=orthogonalEdgeStyle;rounded=0;orthogonalLoop=1;jettySize=auto;html=1;fontSize=20;fontStyle=1" edge="1" parent="1" source="t2oM3CRjPCpd91PFb_5H-14" target="t2oM3CRjPCpd91PFb_5H-6">
          <mxGeometry relative="1" as="geometry" />
        </mxCell>
        <mxCell id="t2oM3CRjPCpd91PFb_5H-14" value="&lt;font style=&quot;font-size: 15px&quot;&gt;HBASE&lt;/font&gt;" style="shape=cylinder;whiteSpace=wrap;html=1;boundedLbl=1;backgroundOutline=1;rounded=1;strokeColor=#b85450;fillColor=#f8cecc;sketch=1;fontStyle=1" vertex="1" parent="1">
          <mxGeometry x="500" y="240" width="60" height="80" as="geometry" />
        </mxCell>
        <mxCell id="t2oM3CRjPCpd91PFb_5H-19" value="" style="endArrow=classic;html=1;fontSize=19;entryX=0.5;entryY=1;entryDx=0;entryDy=0;exitX=1;exitY=0.5;exitDx=0;exitDy=0;" edge="1" parent="1" source="t2oM3CRjPCpd91PFb_5H-34" target="t2oM3CRjPCpd91PFb_5H-6">
          <mxGeometry width="50" height="50" relative="1" as="geometry">
            <mxPoint x="447.5" y="510" as="sourcePoint" />
            <mxPoint x="497.5" y="360" as="targetPoint" />
            <Array as="points">
              <mxPoint x="670" y="400" />
            </Array>
          </mxGeometry>
        </mxCell>
        <mxCell id="t2oM3CRjPCpd91PFb_5H-27" value="" style="edgeStyle=orthogonalEdgeStyle;rounded=0;orthogonalLoop=1;jettySize=auto;html=1;fontSize=19;" edge="1" parent="1" source="t2oM3CRjPCpd91PFb_5H-20" target="t2oM3CRjPCpd91PFb_5H-26">
          <mxGeometry relative="1" as="geometry" />
        </mxCell>
        <mxCell id="t2oM3CRjPCpd91PFb_5H-20" value="管理端-规则配置端" style="rounded=1;whiteSpace=wrap;html=1;sketch=1;strokeWidth=1;fontSize=19;fillColor=#d5e8d4;strokeColor=#82b366;" vertex="1" parent="1">
          <mxGeometry x="130" y="20" width="480" height="50" as="geometry" />
        </mxCell>
        <mxCell id="t2oM3CRjPCpd91PFb_5H-23" value="" style="edgeStyle=orthogonalEdgeStyle;rounded=0;orthogonalLoop=1;jettySize=auto;html=1;fontSize=19;entryX=1;entryY=0.5;entryDx=0;entryDy=0;" edge="1" parent="1" source="t2oM3CRjPCpd91PFb_5H-22" target="t2oM3CRjPCpd91PFb_5H-20">
          <mxGeometry relative="1" as="geometry" />
        </mxCell>
        <mxCell id="t2oM3CRjPCpd91PFb_5H-22" value="Mysql" style="shape=cylinder3;whiteSpace=wrap;html=1;boundedLbl=1;backgroundOutline=1;size=15;sketch=1;strokeWidth=1;fontSize=19;fillColor=#f8cecc;strokeColor=#b85450;" vertex="1" parent="1">
          <mxGeometry x="660" y="5" width="60" height="80" as="geometry" />
        </mxCell>
        <mxCell id="t2oM3CRjPCpd91PFb_5H-28" value="特征规则" style="edgeStyle=orthogonalEdgeStyle;rounded=0;orthogonalLoop=1;jettySize=auto;html=1;fontSize=19;" edge="1" parent="1" source="t2oM3CRjPCpd91PFb_5H-26" target="t2oM3CRjPCpd91PFb_5H-8">
          <mxGeometry relative="1" as="geometry" />
        </mxCell>
        <mxCell id="t2oM3CRjPCpd91PFb_5H-26" value="redis" style="shape=cylinder3;whiteSpace=wrap;html=1;boundedLbl=1;backgroundOutline=1;size=15;sketch=1;strokeWidth=1;fontSize=19;fillColor=#f8cecc;strokeColor=#b85450;" vertex="1" parent="1">
          <mxGeometry x="340" y="110" width="60" height="80" as="geometry" />
        </mxCell>
        <mxCell id="t2oM3CRjPCpd91PFb_5H-30" value="" style="endArrow=classic;html=1;fontSize=19;exitX=1;exitY=0;exitDx=0;exitDy=52.5;exitPerimeter=0;entryX=0.558;entryY=0;entryDx=0;entryDy=0;entryPerimeter=0;" edge="1" parent="1" source="t2oM3CRjPCpd91PFb_5H-26" target="t2oM3CRjPCpd91PFb_5H-6">
          <mxGeometry width="50" height="50" relative="1" as="geometry">
            <mxPoint x="510" y="170" as="sourcePoint" />
            <mxPoint x="560" y="120" as="targetPoint" />
            <Array as="points">
              <mxPoint x="677" y="150" />
            </Array>
          </mxGeometry>
        </mxCell>
        <mxCell id="t2oM3CRjPCpd91PFb_5H-31" value="关联规则" style="edgeLabel;html=1;align=center;verticalAlign=middle;resizable=0;points=[];fontSize=19;" vertex="1" connectable="0" parent="t2oM3CRjPCpd91PFb_5H-30">
          <mxGeometry x="0.0685" y="1" relative="1" as="geometry">
            <mxPoint as="offset" />
          </mxGeometry>
        </mxCell>
        <mxCell id="t2oM3CRjPCpd91PFb_5H-32" value="事件数据" style="shape=document;whiteSpace=wrap;html=1;boundedLbl=1;rounded=1;fontSize=20;fontStyle=1;strokeColor=#d79b00;fillColor=#ffe6cc;sketch=1;" vertex="1" parent="1">
          <mxGeometry x="930" y="240" width="120" height="80" as="geometry" />
        </mxCell>
        <mxCell id="t2oM3CRjPCpd91PFb_5H-34" value="kafka" style="rounded=1;whiteSpace=wrap;html=1;sketch=1;fillColor=#d5e8d4;strokeColor=#82b366;fontSize=20;fontStyle=1" vertex="1" parent="1">
          <mxGeometry x="310" y="420" width="120" height="60" as="geometry" />
        </mxCell>
        <mxCell id="t2oM3CRjPCpd91PFb_5H-38" value="kafka" style="rounded=1;whiteSpace=wrap;html=1;sketch=1;fillColor=#d5e8d4;strokeColor=#82b366;fontSize=20;fontStyle=1" vertex="1" parent="1">
          <mxGeometry x="827" y="215" width="60" height="130" as="geometry" />
        </mxCell>
        <mxCell id="t2oM3CRjPCpd91PFb_5H-39" value="告警事件" style="edgeStyle=orthogonalEdgeStyle;rounded=0;orthogonalLoop=1;jettySize=auto;html=1;fontSize=15;" edge="1" parent="1" source="t2oM3CRjPCpd91PFb_5H-6" target="t2oM3CRjPCpd91PFb_5H-38">
          <mxGeometry relative="1" as="geometry">
            <mxPoint x="730" y="280" as="sourcePoint" />
            <mxPoint x="900" y="280" as="targetPoint" />
          </mxGeometry>
        </mxCell>
        <mxCell id="t2oM3CRjPCpd91PFb_5H-42" style="edgeStyle=orthogonalEdgeStyle;rounded=0;orthogonalLoop=1;jettySize=auto;html=1;entryX=0;entryY=0.5;entryDx=0;entryDy=0;strokeWidth=1;fontSize=15;exitX=1;exitY=0.5;exitDx=0;exitDy=0;" edge="1" parent="1" source="t2oM3CRjPCpd91PFb_5H-54" target="t2oM3CRjPCpd91PFb_5H-1">
          <mxGeometry relative="1" as="geometry">
            <mxPoint x="-20" y="360" as="sourcePoint" />
          </mxGeometry>
        </mxCell>
        <mxCell id="t2oM3CRjPCpd91PFb_5H-46" style="edgeStyle=orthogonalEdgeStyle;rounded=0;orthogonalLoop=1;jettySize=auto;html=1;entryX=0;entryY=0.5;entryDx=0;entryDy=0;strokeWidth=1;fontSize=15;" edge="1" parent="1" source="t2oM3CRjPCpd91PFb_5H-55" target="t2oM3CRjPCpd91PFb_5H-1">
          <mxGeometry relative="1" as="geometry">
            <mxPoint x="-20" y="440" as="sourcePoint" />
          </mxGeometry>
        </mxCell>
        <mxCell id="t2oM3CRjPCpd91PFb_5H-48" style="edgeStyle=orthogonalEdgeStyle;rounded=0;orthogonalLoop=1;jettySize=auto;html=1;entryX=0;entryY=0.5;entryDx=0;entryDy=0;strokeWidth=1;fontSize=15;exitX=1;exitY=0.5;exitDx=0;exitDy=0;" edge="1" parent="1" source="t2oM3CRjPCpd91PFb_5H-51" target="t2oM3CRjPCpd91PFb_5H-1">
          <mxGeometry relative="1" as="geometry">
            <mxPoint x="-20" y="185" as="sourcePoint" />
          </mxGeometry>
        </mxCell>
        <mxCell id="t2oM3CRjPCpd91PFb_5H-51" value="威胁情报数据" style="shape=document;whiteSpace=wrap;html=1;boundedLbl=1;shadow=0;sketch=1;strokeWidth=1;fontSize=15;fillColor=#ffe6cc;strokeColor=#d79b00;" vertex="1" parent="1">
          <mxGeometry x="-150" y="165" width="120" height="50" as="geometry" />
        </mxCell>
        <mxCell id="t2oM3CRjPCpd91PFb_5H-53" value="流量探针数据" style="shape=document;whiteSpace=wrap;html=1;boundedLbl=1;shadow=0;sketch=1;strokeWidth=1;fontSize=15;fillColor=#ffe6cc;strokeColor=#d79b00;" vertex="1" parent="1">
          <mxGeometry x="-150" y="255" width="120" height="50" as="geometry" />
        </mxCell>
        <mxCell id="t2oM3CRjPCpd91PFb_5H-54" value="安全设备数据" style="shape=document;whiteSpace=wrap;html=1;boundedLbl=1;shadow=0;sketch=1;strokeWidth=1;fontSize=15;fillColor=#ffe6cc;strokeColor=#d79b00;" vertex="1" parent="1">
          <mxGeometry x="-150" y="340" width="120" height="50" as="geometry" />
        </mxCell>
        <mxCell id="t2oM3CRjPCpd91PFb_5H-55" value="主机操作数据" style="shape=document;whiteSpace=wrap;html=1;boundedLbl=1;shadow=0;sketch=1;strokeWidth=1;fontSize=15;fillColor=#ffe6cc;strokeColor=#d79b00;fontStyle=1" vertex="1" parent="1">
          <mxGeometry x="-150" y="420" width="120" height="50" as="geometry" />
        </mxCell>
        <mxCell id="t2oM3CRjPCpd91PFb_5H-56" value="威胁情报数据" style="shape=document;whiteSpace=wrap;html=1;boundedLbl=1;shadow=0;sketch=1;strokeWidth=1;fontSize=15;fillColor=#ffe6cc;strokeColor=#d79b00;fontStyle=1" vertex="1" parent="1">
          <mxGeometry x="-150" y="165" width="120" height="50" as="geometry" />
        </mxCell>
        <mxCell id="t2oM3CRjPCpd91PFb_5H-57" value="流量探针数据" style="shape=document;whiteSpace=wrap;html=1;boundedLbl=1;shadow=0;sketch=1;strokeWidth=1;fontSize=15;fillColor=#ffe6cc;strokeColor=#d79b00;fontStyle=1" vertex="1" parent="1">
          <mxGeometry x="-150" y="255" width="120" height="50" as="geometry" />
        </mxCell>
        <mxCell id="t2oM3CRjPCpd91PFb_5H-58" value="安全设备数据" style="shape=document;whiteSpace=wrap;html=1;boundedLbl=1;shadow=0;sketch=1;strokeWidth=1;fontSize=15;fillColor=#ffe6cc;strokeColor=#d79b00;fontStyle=1" vertex="1" parent="1">
          <mxGeometry x="-150" y="340" width="120" height="50" as="geometry" />
        </mxCell>
      </root>
    </mxGraphModel>
  </diagram>
</mxfile>
